<?xml version="1.0" encoding="UTF-8" standalone="no"?>
<!-- Created with Inkscape (http://www.inkscape.org/) -->

<svg
   xmlns:dc="http://purl.org/dc/elements/1.1/"
   xmlns:cc="http://creativecommons.org/ns#"
   xmlns:rdf="http://www.w3.org/1999/02/22-rdf-syntax-ns#"
   xmlns:svg="http://www.w3.org/2000/svg"
   xmlns="http://www.w3.org/2000/svg"
   xmlns:sodipodi="http://sodipodi.sourceforge.net/DTD/sodipodi-0.dtd"
   xmlns:inkscape="http://www.inkscape.org/namespaces/inkscape"
   width="512"
   height="512"
   viewBox="0 0 512 512"
   id="svg2"
   version="1.1"
   inkscape:version="0.91 r13725"
   sodipodi:docname="apu-egt-new.svg"
   inkscape:export-filename="D:\Aircraft\MD-80\Models\Overhead\apu-egt-new-scale.png"
   inkscape:export-xdpi="90"
   inkscape:export-ydpi="90">
  <defs
     id="defs4" />
  <sodipodi:namedview
     id="base"
     pagecolor="#000000"
     bordercolor="#666666"
     borderopacity="1.0"
     inkscape:pageopacity="0"
     inkscape:pageshadow="2"
     inkscape:zoom="0.9050967"
     inkscape:cx="39.074432"
     inkscape:cy="289.75602"
     inkscape:document-units="px"
     inkscape:current-layer="layer1"
     showgrid="false"
     units="px"
     inkscape:window-width="1536"
     inkscape:window-height="793"
     inkscape:window-x="-8"
     inkscape:window-y="-8"
     inkscape:window-maximized="1" />
  <metadata
     id="metadata7">
    <rdf:RDF>
      <cc:Work
         rdf:about="">
        <dc:format>image/svg+xml</dc:format>
        <dc:type
           rdf:resource="http://purl.org/dc/dcmitype/StillImage" />
        <dc:title />
      </cc:Work>
    </rdf:RDF>
  </metadata>
  <g
     inkscape:label="Layer 1"
     inkscape:groupmode="layer"
     id="layer1"
     transform="translate(0,-540.36219)">
    <text
       xml:space="preserve"
       style="font-style:normal;font-weight:normal;font-size:40px;line-height:125%;font-family:sans-serif;letter-spacing:0px;word-spacing:0px;fill:#000000;fill-opacity:1;stroke:none;stroke-width:1px;stroke-linecap:butt;stroke-linejoin:miter;stroke-opacity:1"
       x="246.07143"
       y="630.2193"
       id="text4149"
       sodipodi:linespacing="125%"><tspan
         sodipodi:role="line"
         id="tspan4151"
         x="246.07143"
         y="630.2193" /></text>
    <path
       inkscape:connector-curvature="0"
       style="fill:#ffffff;fill-opacity:1;stroke:none;stroke-width:8;stroke-linecap:butt;stroke-linejoin:round;stroke-miterlimit:4;stroke-dasharray:none;stroke-opacity:1"
       inkscape:transform-center-y="143.35355"
       d="m 259.25,956.7222 -6.5,0 0,-34.01785 6.5,0 z"
       id="rect4147"
       sodipodi:nodetypes="ccccc" />
    <path
       inkscape:transform-center-y="135.60056"
       inkscape:connector-curvature="0"
       style="fill:#ffffff;fill-opacity:1;stroke:none;stroke-width:8;stroke-linecap:butt;stroke-linejoin:round;stroke-miterlimit:4;stroke-dasharray:none;stroke-opacity:1"
       d="m 268.14614,941.38807 -3.99025,0.27901 -1.33778,-19.13097 3.99027,-0.27904 z"
       id="path4384"
       sodipodi:nodetypes="ccccc"
       inkscape:transform-center-x="-9.482125" />
    <text
       xml:space="preserve"
       style="font-style:normal;font-weight:normal;font-size:40px;line-height:125%;font-family:sans-serif;letter-spacing:0px;word-spacing:0px;fill:#ffffff;fill-opacity:1;stroke:none;stroke-width:1px;stroke-linecap:butt;stroke-linejoin:miter;stroke-opacity:1"
       x="213.88086"
       y="629.45715"
       id="text4200"
       sodipodi:linespacing="125%"><tspan
         sodipodi:role="line"
         id="tspan4202"
         x="213.88086"
         y="629.45715"
         style="font-style:normal;font-variant:normal;font-weight:normal;font-stretch:normal;font-size:47.5px;font-family:'Century Gothic';-inkscape-font-specification:'Century Gothic';fill:#ffffff">100</tspan></text>
    <text
       xml:space="preserve"
       style="font-style:normal;font-weight:normal;font-size:40px;line-height:125%;font-family:sans-serif;letter-spacing:0px;word-spacing:0px;fill:#ffffff;fill-opacity:1;stroke:none;stroke-width:1px;stroke-linecap:butt;stroke-linejoin:miter;stroke-opacity:1"
       x="74.271317"
       y="716.76929"
       id="text4269"
       sodipodi:linespacing="125%"><tspan
         sodipodi:role="line"
         id="tspan4271"
         x="74.271317"
         y="716.76929"
         style="font-style:normal;font-variant:normal;font-weight:normal;font-stretch:normal;font-size:47.5px;font-family:'Century Gothic';-inkscape-font-specification:'Century Gothic';fill:#ffffff">80</tspan></text>
    <text
       sodipodi:linespacing="125%"
       id="text4204"
       y="652.50903"
       x="139.59227"
       style="font-style:normal;font-weight:normal;font-size:40px;line-height:125%;font-family:sans-serif;letter-spacing:0px;word-spacing:0px;fill:#ffffff;fill-opacity:1;stroke:none;stroke-width:1px;stroke-linecap:butt;stroke-linejoin:miter;stroke-opacity:1"
       xml:space="preserve"><tspan
         style="font-style:normal;font-variant:normal;font-weight:normal;font-stretch:normal;font-size:47.5px;font-family:'Century Gothic';-inkscape-font-specification:'Century Gothic';fill:#ffffff"
         y="652.50903"
         x="139.59227"
         id="tspan4206"
         sodipodi:role="line">90</tspan></text>
    <text
       xml:space="preserve"
       style="font-style:normal;font-weight:normal;font-size:40px;line-height:125%;font-family:sans-serif;letter-spacing:0px;word-spacing:0px;fill:#ffffff;fill-opacity:1;stroke:none;stroke-width:1px;stroke-linecap:butt;stroke-linejoin:miter;stroke-opacity:1"
       x="38.932236"
       y="831.06787"
       id="text4208"
       sodipodi:linespacing="125%"><tspan
         sodipodi:role="line"
         id="tspan4210"
         x="38.932236"
         y="831.06787"
         style="font-style:normal;font-variant:normal;font-weight:normal;font-stretch:normal;font-size:47.5px;font-family:'Century Gothic';-inkscape-font-specification:'Century Gothic';fill:#ffffff">70</tspan></text>
    <text
       sodipodi:linespacing="125%"
       id="text4212"
       y="934.31451"
       x="103.86588"
       style="font-style:normal;font-weight:normal;font-size:40px;line-height:125%;font-family:sans-serif;letter-spacing:0px;word-spacing:0px;fill:#ffffff;fill-opacity:1;stroke:none;stroke-width:1px;stroke-linecap:butt;stroke-linejoin:miter;stroke-opacity:1"
       xml:space="preserve"><tspan
         style="font-style:normal;font-variant:normal;font-weight:normal;font-stretch:normal;font-size:47.5px;font-family:'Century Gothic';-inkscape-font-specification:'Century Gothic';fill:#ffffff"
         y="934.31451"
         x="103.86588"
         id="tspan4214"
         sodipodi:role="line">60</tspan></text>
    <text
       xml:space="preserve"
       style="font-style:normal;font-weight:normal;font-size:40px;line-height:125%;font-family:sans-serif;letter-spacing:0px;word-spacing:0px;fill:#ffffff;fill-opacity:1;stroke:none;stroke-width:1px;stroke-linecap:butt;stroke-linejoin:miter;stroke-opacity:1"
       x="172.79622"
       y="987.20184"
       id="text4216"
       sodipodi:linespacing="125%"><tspan
         sodipodi:role="line"
         id="tspan4218"
         x="172.79622"
         y="987.20184"
         style="font-style:normal;font-variant:normal;font-weight:normal;font-stretch:normal;font-size:47.5px;font-family:'Century Gothic';-inkscape-font-specification:'Century Gothic';fill:#ffffff">50</tspan></text>
    <text
       sodipodi:linespacing="125%"
       id="text4220"
       y="996.31055"
       x="225.93945"
       style="font-style:normal;font-weight:normal;font-size:40px;line-height:125%;font-family:sans-serif;letter-spacing:0px;word-spacing:0px;fill:#ffffff;fill-opacity:1;stroke:none;stroke-width:1px;stroke-linecap:butt;stroke-linejoin:miter;stroke-opacity:1"
       xml:space="preserve"
       transform="scale(0.9999912,1.0000088)"><tspan
         style="font-style:normal;font-variant:normal;font-weight:normal;font-stretch:normal;font-size:47.5px;font-family:'Century Gothic';-inkscape-font-specification:'Century Gothic';fill:#ffffff"
         y="996.31055"
         x="225.93945"
         id="tspan4222"
         sodipodi:role="line">40</tspan></text>
    <text
       transform="scale(0.9999909,1.0000091)"
       xml:space="preserve"
       style="font-style:normal;font-weight:normal;font-size:40px;line-height:125%;font-family:sans-serif;letter-spacing:0px;word-spacing:0px;fill:#ffffff;fill-opacity:1;stroke:none;stroke-width:1px;stroke-linecap:butt;stroke-linejoin:miter;stroke-opacity:1"
       x="281.88641"
       y="991.815"
       id="text4224"
       sodipodi:linespacing="125%"><tspan
         sodipodi:role="line"
         id="tspan4226"
         x="281.88641"
         y="991.815"
         style="font-style:normal;font-variant:normal;font-weight:normal;font-stretch:normal;font-size:47.5px;font-family:'Century Gothic';-inkscape-font-specification:'Century Gothic';fill:#ffffff">20</tspan></text>
    <text
       transform="scale(0.9999909,1.0000091)"
       xml:space="preserve"
       style="font-style:normal;font-weight:normal;font-size:40px;line-height:125%;font-family:sans-serif;letter-spacing:0px;word-spacing:0px;fill:#ffffff;fill-opacity:1;stroke:none;stroke-width:1px;stroke-linecap:butt;stroke-linejoin:miter;stroke-opacity:1"
       x="337.74054"
       y="970.23431"
       id="text4232"
       sodipodi:linespacing="125%"><tspan
         sodipodi:role="line"
         id="tspan4234"
         x="337.74054"
         y="970.23431"
         style="font-style:normal;font-variant:normal;font-weight:normal;font-stretch:normal;font-size:47.5px;font-family:'Century Gothic';-inkscape-font-specification:'Century Gothic';fill:#ffffff">0</tspan></text>
    <text
       sodipodi:linespacing="85.000002%"
       id="text4247"
       y="761.19354"
       x="398.0108"
       style="font-style:normal;font-weight:normal;font-size:40px;line-height:85.00000238%;font-family:sans-serif;text-align:center;letter-spacing:0px;word-spacing:0px;text-anchor:middle;fill:#ffffff;fill-opacity:1;stroke:none;stroke-width:1px;stroke-linecap:butt;stroke-linejoin:miter;stroke-opacity:1"
       xml:space="preserve"
       transform="scale(0.9999961,1.0000039)"><tspan
         style="font-style:normal;font-variant:normal;font-weight:normal;font-stretch:normal;font-size:52.5px;line-height:85.00000238%;font-family:'Century Gothic';-inkscape-font-specification:'Century Gothic';text-align:center;text-anchor:middle;fill:#ffffff"
         y="761.19354"
         x="398.0108"
         sodipodi:role="line"
         id="tspan4251">APU</tspan><tspan
         style="font-style:normal;font-variant:normal;font-weight:normal;font-stretch:normal;font-size:52.5px;line-height:85.00000238%;font-family:'Century Gothic';-inkscape-font-specification:'Century Gothic';text-align:center;text-anchor:middle;fill:#ffffff"
         y="805.81854"
         x="398.0108"
         sodipodi:role="line"
         id="tspan4223">EGT</tspan></text>
    <g
       transform="scale(0.9999961,1.0000039)"
       style="font-style:normal;font-weight:normal;font-size:40px;line-height:85.00000238%;font-family:sans-serif;letter-spacing:0px;word-spacing:0px;fill:#568fbc;fill-opacity:1;stroke:none;stroke-width:1px;stroke-linecap:butt;stroke-linejoin:miter;stroke-opacity:1"
       id="text4253">
      <path
         d="m 370.94232,820.68683 -15.70293,23.99414 -1.93401,0 15.70306,-23.9941 1.93401,0 z m -2.72461,12.99316 c 1.39649,0 2.58789,0.49805 3.57422,1.49414 0.99609,0.98633 1.49414,2.17774 1.49414,3.57422 0,1.39649 -0.49805,2.59278 -1.49414,3.58887 -0.98633,0.98633 -2.17773,1.47949 -3.57422,1.47949 -1.39648,0 -2.59277,-0.49316 -3.58886,-1.47949 -0.98633,-0.99609 -1.4795,-2.19238 -1.4795,-3.58887 0,-1.39648 0.49317,-2.58789 1.4795,-3.57422 0.99609,-0.99609 2.19238,-1.49414 3.58886,-1.49414 z m 0,1.86035 c -0.88867,0 -1.64551,0.3125 -2.27051,0.9375 -0.625,0.625 -0.9375,1.38184 -0.9375,2.27051 0,0.88867 0.3125,1.64551 0.9375,2.27051 0.625,0.625 1.38184,0.9375 2.27051,0.9375 0.88867,0 1.64551,-0.3125 2.27051,-0.9375 0.63477,-0.625 0.95215,-1.38184 0.95215,-2.27051 0,-0.88867 -0.31738,-1.64551 -0.95215,-2.27051 -0.625,-0.625 -1.38184,-0.9375 -2.27051,-0.9375 z"
         style="font-style:normal;font-variant:normal;font-weight:normal;font-stretch:normal;font-size:30px;line-height:85.00000238%;font-family:'Century Gothic';-inkscape-font-specification:'Century Gothic';text-align:center;text-anchor:middle;fill:#568fbc;fill-opacity:1"
         id="path4187"
         inkscape:connector-curvature="0"
         sodipodi:nodetypes="ccccccscssscsssssssscscs" />
      <path
         d="m 375.61517,843.18683 3.06153,-21.54785 0.35156,0 8.75976,17.68066 8.67188,-17.68066 0.35156,0 3.09082,21.54785 -2.12402,0 -2.10938,-15.41016 -7.61718,15.41016 -0.542,0 -7.71972,-15.52735 -2.09473,15.52735 -2.08008,0 z"
         style="font-style:normal;font-variant:normal;font-weight:normal;font-stretch:normal;font-size:30px;line-height:85.00000238%;font-family:'Century Gothic';-inkscape-font-specification:'Century Gothic';text-align:center;text-anchor:middle;fill:#568fbc;fill-opacity:1"
         id="path4189" />
      <path
         d="m 413.17377,821.63898 10.04883,21.54785 -2.31446,0 -3.38379,-7.08985 -9.28711,0 -3.36914,7.08985 -2.40234,0 10.18066,-21.54785 0.52735,0 z m -0.26367,4.57031 -3.70606,7.80762 7.36816,0 -3.6621,-7.80762 z"
         style="font-style:normal;font-variant:normal;font-weight:normal;font-stretch:normal;font-size:30px;line-height:85.00000238%;font-family:'Century Gothic';-inkscape-font-specification:'Century Gothic';text-align:center;text-anchor:middle;fill:#568fbc;fill-opacity:1"
         id="path4191" />
      <path
         d="m 425.43451,821.63898 2.51953,0 5.15625,8.4082 5.2002,-8.4082 2.49023,0 -6.41602,10.44433 6.84082,11.10352 -2.51953,0 -5.5957,-9.03809 -5.625,9.03809 -2.51953,0 6.87012,-11.10352 -6.40137,-10.44433 z"
         style="font-style:normal;font-variant:normal;font-weight:normal;font-stretch:normal;font-size:30px;line-height:85.00000238%;font-family:'Century Gothic';-inkscape-font-specification:'Century Gothic';text-align:center;text-anchor:middle;fill:#568fbc;fill-opacity:1"
         id="path4193" />
      <path
         d="m 376.47943,851.138 -1.69922,1.30371 q -1.40625,-1.83105 -3.38379,-2.76855 -1.96289,-0.95215 -4.32129,-0.95215 -2.57812,0 -4.77539,1.24512 -2.19726,1.23046 -3.41308,3.32519 -1.20117,2.08008 -1.20117,4.6875 0,3.94043 2.69531,6.57715 2.70996,2.63672 6.82617,2.63672 4.52637,0 7.57324,-3.54492 l 1.69922,1.28906 q -1.61133,2.05078 -4.02832,3.17871 -2.40234,1.11328 -5.37598,1.11328 -5.65429,0 -8.92089,-3.76465 -2.73926,-3.17871 -2.73926,-7.67578 0,-4.73144 3.31054,-7.9541 3.3252,-3.2373 8.32032,-3.2373 3.01758,0 5.44922,1.20117 2.43164,1.18652 3.98437,3.33984 z"
         style="font-style:normal;font-variant:normal;font-weight:normal;font-stretch:normal;font-size:30px;line-height:85.00000238%;font-family:'Century Gothic';-inkscape-font-specification:'Century Gothic';text-align:center;text-anchor:middle;fill:#568fbc;fill-opacity:1"
         id="path4195" />
      <path
         d="m 391.05463,846.59699 q 4.89257,0 8.18847,3.2666 3.2959,3.2666 3.2959,8.04199 0,4.73144 -3.2959,8.02734 -3.28125,3.2959 -8.01269,3.2959 -4.79004,0 -8.08594,-3.28125 -3.2959,-3.28125 -3.2959,-7.93945 0,-3.10547 1.49414,-5.75684 1.50879,-2.65136 4.10156,-4.14551 2.59278,-1.50878 5.61036,-1.50878 z m 0.10254,2.10937 q -2.3877,0 -4.52637,1.24512 -2.13867,1.24511 -3.33985,3.35449 -1.20117,2.10937 -1.20117,4.70215 0,3.83789 2.65137,6.48926 2.66602,2.63671 6.41602,2.63671 2.50488,0 4.6289,-1.21582 2.13867,-1.21582 3.3252,-3.32519 1.20117,-2.10938 1.20117,-4.6875 0,-2.56348 -1.20117,-4.62891 -1.18653,-2.08008 -3.3545,-3.32519 -2.16796,-1.24512 -4.5996,-1.24512 z"
         style="font-style:normal;font-variant:normal;font-weight:normal;font-stretch:normal;font-size:30px;line-height:85.00000238%;font-family:'Century Gothic';-inkscape-font-specification:'Century Gothic';text-align:center;text-anchor:middle;fill:#568fbc;fill-opacity:1"
         id="path4197" />
      <path
         d="m 406.87494,868.68683 0,-21.54785 0.46875,0 14.32617,16.49414 0,-16.49414 2.12402,0 0,21.54785 -0.48339,0 -14.20899,-16.28906 0,16.28906 -2.22656,0 z"
         style="font-style:normal;font-variant:normal;font-weight:normal;font-stretch:normal;font-size:30px;line-height:85.00000238%;font-family:'Century Gothic';-inkscape-font-specification:'Century Gothic';text-align:center;text-anchor:middle;fill:#568fbc;fill-opacity:1"
         id="path4199" />
      <path
         d="m 426.92865,849.2337 0,-2.09472 11.82129,0 0,2.09472 -4.80469,0 0,19.45313 -2.19726,0 0,-19.45313 -4.81934,0 z"
         style="font-style:normal;font-variant:normal;font-weight:normal;font-stretch:normal;font-size:30px;line-height:85.00000238%;font-family:'Century Gothic';-inkscape-font-specification:'Century Gothic';text-align:center;text-anchor:middle;fill:#568fbc;fill-opacity:1"
         id="path4201" />
    </g>
    <path
       sodipodi:nodetypes="ccccc"
       id="path4227"
       d="m 204.2068,948.16272 -6.108,-2.22313 11.63479,-31.96632 6.108,2.22313 z"
       inkscape:transform-center-y="134.70827"
       style="fill:#ffffff;fill-opacity:1;stroke:none;stroke-width:8;stroke-linecap:butt;stroke-linejoin:round;stroke-miterlimit:4;stroke-dasharray:none;stroke-opacity:1"
       inkscape:connector-curvature="0"
       inkscape:transform-center-x="49.029805" />
    <path
       inkscape:transform-center-x="23.60427"
       sodipodi:nodetypes="ccccc"
       id="path4229"
       d="m 232.70025,940.01857 -3.93922,-0.6946 3.33016,-18.88634 3.93924,0.69459 z"
       style="fill:#ffffff;fill-opacity:1;stroke:none;stroke-width:8;stroke-linecap:butt;stroke-linejoin:round;stroke-miterlimit:4;stroke-dasharray:none;stroke-opacity:1"
       inkscape:connector-curvature="0"
       inkscape:transform-center-y="133.86658" />
    <path
       inkscape:transform-center-x="112.96414"
       inkscape:connector-curvature="0"
       style="fill:#ffffff;fill-opacity:1;stroke:none;stroke-width:8;stroke-linecap:butt;stroke-linejoin:round;stroke-miterlimit:4;stroke-dasharray:none;stroke-opacity:1"
       inkscape:transform-center-y="88.257255"
       d="m 131.63354,897.64975 -4.00179,-5.12207 26.80643,-20.94347 4.00179,5.12206 z"
       id="path4231"
       sodipodi:nodetypes="ccccc" />
    <path
       inkscape:transform-center-x="79.89862"
       sodipodi:nodetypes="ccccc"
       id="path4233"
       d="m 172.08321,915.26569 -3.23605,-2.35115 11.27235,-15.51508 3.23609,2.35114 z"
       style="fill:#ffffff;fill-opacity:1;stroke:none;stroke-width:8;stroke-linecap:butt;stroke-linejoin:round;stroke-miterlimit:4;stroke-dasharray:none;stroke-opacity:1"
       inkscape:connector-curvature="0"
       inkscape:transform-center-y="109.97106" />
    <path
       sodipodi:nodetypes="ccccc"
       id="path4235"
       d="m 96.855725,816.35435 -0.679427,-6.46438 33.831492,-3.55583 0.67943,6.46438 z"
       inkscape:transform-center-y="14.98452"
       style="fill:#ffffff;fill-opacity:1;stroke:none;stroke-width:8;stroke-linecap:butt;stroke-linejoin:round;stroke-miterlimit:4;stroke-dasharray:none;stroke-opacity:1"
       inkscape:connector-curvature="0"
       inkscape:transform-center-x="142.56824" />
    <path
       inkscape:transform-center-y="50.92092"
       inkscape:connector-curvature="0"
       style="fill:#ffffff;fill-opacity:1;stroke:none;stroke-width:8;stroke-linecap:butt;stroke-linejoin:round;stroke-miterlimit:4;stroke-dasharray:none;stroke-opacity:1"
       d="m 121.82491,852.72885 -1.4984,-3.70873 17.78123,-7.1841 1.49845,3.70874 z"
       id="path4237"
       sodipodi:nodetypes="ccccc"
       inkscape:transform-center-x="126.03365" />
    <path
       inkscape:transform-center-x="128.84531"
       inkscape:connector-curvature="0"
       style="fill:#ffffff;fill-opacity:1;stroke:none;stroke-width:8;stroke-linecap:butt;stroke-linejoin:round;stroke-miterlimit:4;stroke-dasharray:none;stroke-opacity:1"
       inkscape:transform-center-y="-62.84206"
       d="m 110.44246,728.98251 2.84942,-5.84214 30.57503,14.91244 -2.84941,5.84215 z"
       id="path4239"
       sodipodi:nodetypes="ccccc" />
    <path
       inkscape:transform-center-x="133.8666"
       sodipodi:nodetypes="ccccc"
       id="path4241"
       d="m 112.34293,773.06176 0.69462,-3.93921 18.88633,3.33015 -0.69458,3.93925 z"
       style="fill:#ffffff;fill-opacity:1;stroke:none;stroke-width:8;stroke-linecap:butt;stroke-linejoin:round;stroke-miterlimit:4;stroke-dasharray:none;stroke-opacity:1"
       inkscape:connector-curvature="0"
       inkscape:transform-center-y="-23.604265" />
    <path
       sodipodi:nodetypes="ccccc"
       id="path4243"
       d="m 168.26469,662.08686 5.51231,-3.44445 18.0267,28.84876 -5.5123,3.44447 z"
       inkscape:transform-center-y="-121.5707"
       style="fill:#ffffff;fill-opacity:1;stroke:none;stroke-width:8;stroke-linecap:butt;stroke-linejoin:round;stroke-miterlimit:4;stroke-dasharray:none;stroke-opacity:1"
       inkscape:connector-curvature="0"
       inkscape:transform-center-x="75.9658" />
    <path
       inkscape:transform-center-y="-90.956035"
       inkscape:connector-curvature="0"
       style="fill:#ffffff;fill-opacity:1;stroke:none;stroke-width:8;stroke-linecap:butt;stroke-linejoin:round;stroke-miterlimit:4;stroke-dasharray:none;stroke-opacity:1"
       d="m 146.51889,700.47555 2.67653,-2.97255 14.25181,12.83236 -2.67653,2.9726 z"
       id="path4245"
       sodipodi:nodetypes="ccccc"
       inkscape:transform-center-x="101.01694" />
    <path
       style="opacity:1;fill:none;fill-opacity:1;stroke:#ffd42a;stroke-width:15.99705219;stroke-linecap:butt;stroke-miterlimit:4;stroke-dasharray:none;stroke-opacity:1"
       id="path4277"
       sodipodi:type="arc"
       sodipodi:cx="256.00003"
       sodipodi:cy="796.36212"
       sodipodi:rx="134.22534"
       sodipodi:ry="134.22534"
       sodipodi:start="4.712389"
       sodipodi:end="5.051983"
       d="m 256.00003,662.13678 a 134.22534,134.22534 0 0 1 44.71104,7.66561"
       sodipodi:open="true" />
    <path
       inkscape:connector-curvature="0"
       style="fill:#ffffff;fill-opacity:1;stroke:none;stroke-width:8;stroke-linecap:butt;stroke-linejoin:round;stroke-miterlimit:4;stroke-dasharray:none;stroke-opacity:1"
       inkscape:transform-center-y="-143.35355"
       d="m 252.75001,635.99725 6.49999,-6e-5 -10e-6,34.01791 -6.49998,0 z"
       id="path4247"
       sodipodi:nodetypes="ccccc" />
    <path
       inkscape:transform-center-x="37.467855"
       sodipodi:nodetypes="ccccc"
       id="path4249"
       d="m 213.96657,657.02946 3.84504,-1.10252 5.28611,18.43476 -3.84507,1.10257 z"
       style="fill:#ffffff;fill-opacity:1;stroke:none;stroke-width:8;stroke-linecap:butt;stroke-linejoin:round;stroke-miterlimit:4;stroke-dasharray:none;stroke-opacity:1"
       inkscape:connector-curvature="0"
       inkscape:transform-center-y="-130.66591" />
    <path
       sodipodi:nodetypes="ccccc"
       id="path4251"
       d="m 338.22302,658.64241 5.51229,3.44449 -18.02671,28.84875 -5.5123,-3.44447 z"
       inkscape:transform-center-y="-121.57071"
       style="fill:#ffffff;fill-opacity:1;stroke:none;stroke-width:8;stroke-linecap:butt;stroke-linejoin:round;stroke-miterlimit:4;stroke-dasharray:none;stroke-opacity:1"
       inkscape:connector-curvature="0"
       inkscape:transform-center-x="-75.9658" />
    <path
       inkscape:transform-center-y="-130.66593"
       inkscape:connector-curvature="0"
       style="fill:#ffffff;fill-opacity:1;stroke:none;stroke-width:8;stroke-linecap:butt;stroke-linejoin:round;stroke-miterlimit:4;stroke-dasharray:none;stroke-opacity:1"
       d="m 294.18837,655.92691 3.84503,1.10257 -5.28606,18.43477 -3.84508,-1.10254 z"
       id="path4253"
       sodipodi:nodetypes="ccccc"
       inkscape:transform-center-x="-37.46783" />
    <path
       sodipodi:nodetypes="ccccc"
       id="path4255"
       d="m 281.53651,954.70925 -6.43674,0.90463 -4.73437,-33.68679 6.43674,-0.90463 z"
       inkscape:transform-center-y="141.95844"
       style="fill:#ffffff;fill-opacity:1;stroke:none;stroke-width:8;stroke-linecap:butt;stroke-linejoin:round;stroke-miterlimit:4;stroke-dasharray:none;stroke-opacity:1"
       inkscape:connector-curvature="0"
       inkscape:transform-center-x="-19.950955" />
    <path
       inkscape:transform-center-x="-39.51359"
       inkscape:connector-curvature="0"
       style="fill:#ffffff;fill-opacity:1;stroke:none;stroke-width:8;stroke-linecap:butt;stroke-linejoin:round;stroke-miterlimit:4;stroke-dasharray:none;stroke-opacity:1"
       inkscape:transform-center-y="137.80027"
       d="m 303.32598,949.61421 -6.24819,1.79165 -9.37659,-32.70006 6.24819,-1.79165 z"
       id="path4257"
       sodipodi:nodetypes="ccccc" />
    <path
       sodipodi:nodetypes="ccccc"
       id="path4259"
       d="m 324.19431,941.53624 -5.93804,2.6438 -13.8363,-31.07686 5.93803,-2.64379 z"
       inkscape:transform-center-y="130.95998"
       style="fill:#ffffff;fill-opacity:1;stroke:none;stroke-width:8;stroke-linecap:butt;stroke-linejoin:round;stroke-miterlimit:4;stroke-dasharray:none;stroke-opacity:1"
       inkscape:connector-curvature="0"
       inkscape:transform-center-x="-58.30714" />
    <path
       inkscape:transform-center-x="-75.965805"
       inkscape:connector-curvature="0"
       style="fill:#ffffff;fill-opacity:1;stroke:none;stroke-width:8;stroke-linecap:butt;stroke-linejoin:round;stroke-miterlimit:4;stroke-dasharray:none;stroke-opacity:1"
       inkscape:transform-center-y="121.5707"
       d="m 343.73531,930.63258 -5.5123,3.44448 -18.02671,-28.84878 5.51229,-3.44447 z"
       id="path4261"
       sodipodi:nodetypes="ccccc" />
    <path
       inkscape:transform-center-x="-28.2618"
       sodipodi:nodetypes="ccccc"
       id="path4263"
       d="m 288.21173,938.28627 -3.91259,0.83163 -3.98727,-18.75861 3.9126,-0.83166 z"
       style="fill:#ffffff;fill-opacity:1;stroke:none;stroke-width:8;stroke-linecap:butt;stroke-linejoin:round;stroke-miterlimit:4;stroke-dasharray:none;stroke-opacity:1"
       inkscape:connector-curvature="0"
       inkscape:transform-center-y="132.96125" />
    <path
       inkscape:transform-center-y="127.734"
       inkscape:connector-curvature="0"
       style="fill:#ffffff;fill-opacity:1;stroke:none;stroke-width:8;stroke-linecap:butt;stroke-linejoin:round;stroke-miterlimit:4;stroke-dasharray:none;stroke-opacity:1"
       d="m 307.65036,932.42206 -3.75878,1.36807 -6.55916,-18.02114 3.75878,-1.36809 z"
       id="path4265"
       sodipodi:nodetypes="ccccc"
       inkscape:transform-center-x="-46.49139" />
    <path
       inkscape:transform-center-x="-63.816075"
       sodipodi:nodetypes="ccccc"
       id="path4267"
       d="m 326.08367,923.90959 -3.5318,1.87787 -9.00339,-16.9329 3.5318,-1.87789 z"
       style="fill:#ffffff;fill-opacity:1;stroke:none;stroke-width:8;stroke-linecap:butt;stroke-linejoin:round;stroke-miterlimit:4;stroke-dasharray:none;stroke-opacity:1"
       inkscape:connector-curvature="0"
       inkscape:transform-center-y="120.02055" />
    <text
       sodipodi:linespacing="125%"
       id="text4273"
       y="654.45581"
       x="329.39655"
       style="font-style:normal;font-weight:normal;font-size:40px;line-height:125%;font-family:sans-serif;letter-spacing:0px;word-spacing:0px;fill:#ffffff;fill-opacity:1;stroke:none;stroke-width:1px;stroke-linecap:butt;stroke-linejoin:miter;stroke-opacity:1"
       xml:space="preserve"><tspan
         style="font-style:normal;font-variant:normal;font-weight:normal;font-stretch:normal;font-size:47.5px;font-family:'Century Gothic';-inkscape-font-specification:'Century Gothic';letter-spacing:0px;fill:#ffffff"
         y="654.45581"
         x="329.39655"
         id="tspan4275"
         sodipodi:role="line">110</tspan></text>
    <path
       id="path88"
       d="m 297.54017,677.0513 4.65452,1.62099 20.84884,-32.84884 12.03485,-34.5593 -13.04653,-4.54328 z"
       style="fill:#ff0000;fill-opacity:1;stroke:none;stroke-width:8;stroke-linecap:butt;stroke-linejoin:round;stroke-miterlimit:4;stroke-dasharray:none;stroke-opacity:1"
       inkscape:connector-curvature="0"
       sodipodi:nodetypes="cccccc"
       inkscape:transform-center-y="-153.6683"
       inkscape:transform-center-x="-60.313751" />
    <path
       sodipodi:nodetypes="scssscsssssssscscs"
       inkscape:connector-curvature="0"
       d="m 356.45363,821.11481 c 1.39649,0 2.58788,0.49805 3.57421,1.49415 0.99609,0.98633 1.49413,2.17775 1.49413,3.57423 0,1.3965 -0.49804,2.59279 -1.49413,3.58889 -0.98633,0.98633 -2.17772,1.47949 -3.57421,1.47949 -1.39647,0 -2.59276,-0.49316 -3.58884,-1.47949 -0.98633,-0.9961 -1.4795,-2.19239 -1.4795,-3.58889 0,-1.39648 0.49317,-2.5879 1.4795,-3.57423 0.99608,-0.9961 2.19237,-1.49415 3.58884,-1.49415 z m 0,1.86036 c -0.88866,0 -1.6455,0.3125 -2.2705,0.9375 -0.62499,0.625 -0.93749,1.38185 -0.93749,2.27052 0,0.88867 0.3125,1.64552 0.93749,2.27052 0.625,0.625 1.38184,0.9375 2.2705,0.9375 0.88867,0 1.64551,-0.3125 2.27051,-0.9375 0.63476,-0.625 0.95214,-1.38185 0.95214,-2.27052 0,-0.88867 -0.31738,-1.64552 -0.95214,-2.27052 -0.625,-0.625 -1.38184,-0.9375 -2.27051,-0.9375 z"
       style="font-style:normal;font-variant:normal;font-weight:normal;font-stretch:normal;font-size:30px;line-height:85.00000238%;font-family:'Century Gothic';-inkscape-font-specification:'Century Gothic';text-align:center;letter-spacing:0px;word-spacing:0px;text-anchor:middle;fill:#568fbc;fill-opacity:1;stroke:none;stroke-width:1px;stroke-linecap:butt;stroke-linejoin:miter;stroke-opacity:1"
       id="path4244" />
  </g>
</svg>
